<svg viewBox="0 0 1024 1024" version="1.1" xmlns="http://www.w3.org/2000/svg" width="200"
    height="200">
    <path
        d="M600.7,404.1v-16.7c0-13-5.5-25.9-16.4-33.3l-54.8-44.5c-5.5-5.6-9.1-13-9.1-20.4v-66.7c0-13-11-24.1-23.7-24.1
        H260.9c-12.8,0-23.7,11.1-23.7,24.1v607.5c0,13,11,24.1,23.7,24.1h235.7c12.8,0,23.7-11.1,23.7-24.1v-35.2c0-14.8,11-25.9,25.6-25.9
        h12.8c23.7,0,43.8-20.4,43.8-44.5V656c62.1-7.4,111.4-61.1,111.4-125.9c0-29.6-9.1-57.4-27.4-77.8
        C675.4,430,626.2,407.8,600.7,404.1z M576.9,726.4h-1.8c0,9.3-7.3,18.5-18.3,18.5H544c-27.4,0-51.2,24.1-51.2,51.9v33.3H262.7V378.2
        h124.2v231.5c0,7.4,5.5,13,12.8,13s12.8-5.6,12.8-13V365.2c0-7.4-5.5-13-12.8-13h-137V224.4h232v64.8c0,16.7,7.3,31.5,20.1,40.7
        l54.8,44.5c3.7,3.7,7.3,9.3,7.3,13V726.4z M600.7,630.1V430c49.3,5.6,85.9,48.2,85.9,100C686.5,581.9,648.2,624.5,600.7,630.1z"  fill-opacity="1"/>
    <polygon points="854.5,400.6 693.6,461.2 703,490.5 863.9,430"/>
</svg>