<svg viewBox="0 0 1024 1024" version="1.1"
    xmlns="http://www.w3.org/2000/svg" xmlns:xlink="http://www.w3.org/1999/xlink"
    width="200" height="200">
    <path
        d="M746.666667 213.333333h-469.333334C243.2 213.333333 213.333333 243.2 213.333333 277.333333v469.333334c0 34.133333 29.866667 64 64 64h469.333334c34.133333 0 64-29.866667 64-64v-469.333334c0-34.133333-29.866667-64-64-64zM256 439.466667h140.8v140.8H256v-140.8z m21.333333 328.533333c-12.8 0-21.333333-8.533333-21.333333-21.333333v-119.466667h140.8V768H277.333333z m307.2 0h-140.8v-140.8h140.8V768z m0-183.466667h-140.8v-140.8h140.8v140.8z m183.466667 162.133334c0 12.8-8.533333 21.333333-21.333333 21.333333h-119.466667v-140.8H768v119.466667z m0-162.133334h-140.8v-140.8H768v140.8z m0-187.733333H256V277.333333c0-12.8 8.533333-21.333333 21.333333-21.333333h469.333334c12.8 0 21.333333 8.533333 21.333333 21.333333v119.466667z"
        fill="#1296db"></path>
</svg>