<svg viewBox="0 0 1024 1024" version="1.1"
    xmlns="http://www.w3.org/2000/svg" width="200" height="200">
    <path
        d="M512 206.848c-168.448 0-305.152 136.704-305.152 305.152s136.704 305.152 305.152 305.152 305.152-136.704 305.152-305.152-136.704-305.152-305.152-305.152z m0 547.84c-136.704 0-242.688-109.568-242.688-242.688S375.296 269.312 512 269.312 754.688 378.88 754.688 512s-105.984 242.688-242.688 242.688z"
        fill="#232323"></path>
    <path
        d="M590.336 519.68H504.32V375.296c0-15.872-11.776-31.232-31.232-31.232s-31.232 15.872-31.232 31.232v176.128c0 15.872 11.776 31.232 31.232 31.232h117.248c15.872 0 31.232-11.776 31.232-31.232 0-19.968-15.872-31.744-31.232-31.744z"
        fill="#00AC4E"></path>
</svg>