<svg viewBox="0 0 1024 1024" version="1.1"
    xmlns="http://www.w3.org/2000/svg" p-id="3587" xmlns:xlink="http://www.w3.org/1999/xlink"
    width="200" height="200">
    <path
        d="M883.3 745H142.7c-41.9 0-76-34.1-76-76V351.6c0-41.9 34.1-76 76-76h740.6c41.9 0 76 34.1 76 76V669c0 41.9-34.1 76-76 76zM142.7 321.8c-16.4 0-29.8 13.3-29.8 29.8V669c0 16.4 13.3 29.8 29.8 29.8h740.6c16.4 0 29.8-13.3 29.8-29.8V351.6c0-16.4-13.3-29.8-29.8-29.8H142.7z"
        fill="#7D7D7D"></path>
    <path
        d="M191.3 576c-10.1 0-13.9 0.1-19.6 0.4 0.8-5.7 1.1-10.2 1.1-19.4v-72.4c0-7-0.3-12.7-1.1-19 6.7 0.4 8.6 0.4 19.4 0.4h34.7c21.4 0 34 10.3 34 27.8 0 8.1-2.6 14.4-7.7 18.9-2.9 2.5-5.3 3.8-10.7 5.8 6.5 1.5 9.9 3 13.8 6.4 5.7 5 8.6 12.2 8.6 20.9 0 19-13.5 30.3-36.5 30.3h-36z m30.6-67.6c7 0 11.4-4.1 11.4-10.6s-4.1-10.2-11.6-10.2h-23v20.8h23.2z m-23.2 45.8H223c8.3 0 13.4-4.6 13.4-12.4 0-7.7-5-12.2-13.5-12.2h-24.2v24.6z m186.2-88.3c-0.8 5.7-1.1 10.4-1.1 20v45.5c0 30.2-18.1 47.2-50 47.2-16.4 0-29.8-4.6-37.7-13-7.7-8.2-11.6-19.7-11.6-34.5v-45.2c0-9.1-0.3-14.9-1.1-20H312c-0.8 4.9-1.1 10.2-1.1 20v45.5c0 16.7 7.5 24.6 23 24.6 15.9 0 23.4-7.9 23.4-24.6v-45.5c0-9.9-0.3-14-1.1-20h28.7z m79.2 90.1c0 7.9 0.3 13.8 1.1 20H436c0.8-6.2 1.1-11.6 1.1-20v-66.7h-15.6c-8.3 0-10.6 0.1-20 0.9V465c4.4 0.5 11.6 0.9 19.7 0.9H479c9.3 0 14.5-0.3 20.6-0.9v25.3c-6-0.7-11.1-0.9-20.6-0.9h-14.9V556z m108.8 0c0 7.9 0.3 13.8 1.1 20h-29.2c0.8-6.2 1.1-11.6 1.1-20v-66.7h-15.6c-8.3 0-10.6 0.1-20 0.9V465c4.4 0.5 11.6 0.9 19.7 0.9h57.9c9.3 0 14.5-0.3 20.6-0.9v25.3c-6-0.7-11.1-0.9-20.6-0.9H573V556z m155.8-35.6c0 34.9-21.3 58.1-53.4 58.1-32.4 0-53.3-22.6-53.3-57.7 0-34.9 20.9-57.3 53.4-57.3 32.6 0 53.3 22.3 53.3 56.9z m-27.5 0.3c0-21.4-9.8-34.4-25.8-34.4-16.1 0-26.1 13.1-26.1 34.4 0 21.6 9.9 34.9 26.1 34.9 16 0 25.8-13.2 25.8-34.9z m110.6-0.7c3.8 5.7 6.3 9.9 9.5 15.7-0.5-6.1-0.8-12.2-0.8-19.6V486c0-8.7-0.3-14-1.1-20.1h28.2c-0.8 6-1.1 11.5-1.1 20.1v70.2c0 8.1 0.4 14.2 1.1 19.7h-29c-2.4-5-5.4-9.9-9.9-16.8l-24.5-36.9c-3.6-5.3-5.8-9.3-9.5-16.3 0.7 6 0.9 13.2 0.9 19.7v29.6c0 9.1 0.3 14.9 1.1 20.6h-28.2c0.8-5.2 1.1-11 1.1-20.8v-69.6c0-7.7-0.3-13.6-1.1-19.7h28.7c1.3 3.6 4.2 8.9 9.4 16.5l25.2 37.8z"
        fill="#7D7D7D"></path>
</svg>