<svg viewBox="0 0 1024 1024" version="1.1"
    xmlns="http://www.w3.org/2000/svg" p-id="4650" xmlns:xlink="http://www.w3.org/1999/xlink"
    width="200" height="200">
    <path
        d="M767.1 292.6c-0.2-19-15.6-34.4-34.6-34.6l-202.2-2.5c-9.5-0.1-18.6 3.6-25.2 10.3l-35.4 35.4c48.4 138.5 72.4 282.3 42.1 433.8-1.7 10.4-3.9 21.1-6.4 31.9 6-1.5 11.7-4.4 16.3-9.1l237.6-237.6c6.7-6.7 10.4-15.8 10.3-25.2l-2.5-202.4zM664.3 429c-17.1 17.1-44.9 17.1-62 0s-17.1-44.9 0-62 44.9-17.1 62 0 17.2 44.8 0 62z"
        fill="#FFDE55"></path>
    <path
        d="M779.6 292.5c-0.2-12.5-5.1-24.2-13.9-33.1-8.8-8.8-20.6-13.8-33.1-13.9L530.4 243c-12.7-0.1-25.2 4.9-34.2 13.9L258.6 494.6c-9 9-13.9 20.9-13.9 33.6 0 12.7 4.9 24.7 13.9 33.6l204.7 204.7c9 9 20.9 13.9 33.6 13.9 12.7 0 24.7-4.9 33.6-13.9l237.6-237.6c9-9 14.1-21.5 13.9-34.2l-2.4-202.2z m-29.1 218.7L512.9 748.8c-4.3 4.3-9.9 6.6-16 6.6-6 0-11.7-2.3-16-6.6L276.3 544.2c-4.3-4.3-6.6-9.9-6.6-16s2.3-11.7 6.6-16l237.6-237.6c4.2-4.2 10-6.6 16-6.6h0.3l202.2 2.5c12.4 0.2 22.2 9.9 22.3 22.3l2.5 202.2c0 6-2.4 11.9-6.7 16.2z"
        fill=""></path>
    <path
        d="M593.5 358.1c-22 22-22 57.7 0 79.7 10.6 10.6 24.8 16.5 39.8 16.5s29.2-5.9 39.8-16.5c22-22 22-57.7 0-79.7-21.9-22-57.6-22-79.6 0z m62 62c-5.9 5.9-13.8 9.2-22.2 9.2s-16.2-3.3-22.2-9.2c-12.2-12.2-12.2-32.1 0-44.3 6.1-6.1 14.1-9.2 22.2-9.2 8 0 16.1 3.1 22.2 9.2 12.2 12.2 12.2 32.1 0 44.3z"
        fill=""></path>
</svg>