<svg t="1673874136249" class="icon" viewBox="0 0 1024 1024" version="1.1"
    xmlns="http://www.w3.org/2000/svg" xmlns:xlink="http://www.w3.org/1999/xlink"
    width="200" height="200">
    <path
        d="M538.4 504.4l280.9 144.3c9.9 5.1 22.2 0.5 26-10 14.3-38.7 22.1-80.6 22.1-124.3 0-186.2-141.6-339.3-323-357.5-7.9-0.8-14.7 5.3-14.7 13.3v320.1c0 5.9 3.4 11.4 8.7 14.1z"
        fill="#64B5F6"></path>
    <path
        d="M492.5 514.5V172.3c0-9.3-8-16.6-17.3-15.8C289 173.4 143.7 332.3 148.7 524.1c5 190.9 161.5 346.1 352.4 349.7 131.3 2.5 246.8-65.5 311.5-168.7 4.6-7.3 2-17-5.7-21L499.8 526.4c-4.5-2.3-7.3-6.9-7.3-11.9z"
        fill="#1E88E5"></path>
</svg>