<?xml version="1.0" standalone="no"?>
<svg  viewBox="0 0 1024 1024" version="1.1"
    xmlns="http://www.w3.org/2000/svg" 
    xmlns:xlink="http://www.w3.org/1999/xlink" width="200" height="200">
    <path d="M500.181333 308.757333a118.421333 118.421333 0 1 1-118.421333 118.421334 118.421333 118.421333 0 0 1 118.421333-118.421334m0-19.2a137.514667 137.514667 0 1 0 137.514667 137.514667 137.514667 137.514667 0 0 0-137.514667-137.514667z"></path>
    <path d="M500.181333 478.741333a118.421333 118.421333 0 1 1-118.421333 118.421334 118.421333 118.421333 0 0 1 118.421333-118.421334m0-19.2a137.514667 137.514667 0 1 0 137.514667 137.514667 137.514667 137.514667 0 0 0-137.514667-137.514667z"></path>
    <path d="M500.266667 234.666667a9.557333 9.557333 0 0 1 9.557333 9.557333v54.869333a9.557333 9.557333 0 0 1-9.557333 9.557334 9.557333 9.557333 0 0 1-9.557334-9.557334v-54.848A9.557333 9.557333 0 0 1 500.266667 234.666667z"></path>
    <path d="M500.266667 715.349333a9.557333 9.557333 0 0 1 9.557333 9.557334v54.890666a9.557333 9.557333 0 0 1-9.557333 9.557334 9.557333 9.557333 0 0 1-9.557334-9.557334v-54.869333a9.557333 9.557333 0 0 1 9.557334-9.578667z"></path>
    <path d="M500.266667 446.357333a10.666667 10.666667 0 0 1-10.218667-6.186666l-36.053333-77.312a10.666667 10.666667 0 0 1 5.205333-14.186667 10.666667 10.666667 0 0 1 14.101333 5.205333l26.986667 57.728 26.922667-57.728a10.666667 10.666667 0 0 1 14.186666-5.205333 10.666667 10.666667 0 0 1 5.12 14.186667l-36.053333 77.312a10.666667 10.666667 0 0 1-9.664 6.208z"></path>
    <path d="M500.266667 681.024a10.666667 10.666667 0 0 1-10.218667-6.186667l-36.053333-77.312a10.666667 10.666667 0 0 1 5.205333-14.186666 10.666667 10.666667 0 0 1 14.101333 5.205333l26.986667 57.728 26.922667-57.728a10.666667 10.666667 0 0 1 14.186666-5.205333 10.666667 10.666667 0 0 1 5.12 14.186666l-36.053333 77.312a10.666667 10.666667 0 0 1-9.664 6.208z"></path>
</svg>